# xmcd
#
# Track frame offsets: 
#        150
#        450
#        13810
#        33851
#        45463
#        69421
#        81833
#        101540
#        126419
#        126719
#        142768
#        156334
#        175106
#
# Disc length: 2620 seconds
#
# Revision: 0
# Processed by: cddbd v1.5.2PL0 Copyright (c) Steve Scherf et al.
# Submitted via: ExactAudioCopy v1.3
#
DISCID=a50a3a0d
DTITLE=Lisa Mann - Satisfied
DYEAR=2012
DGENRE=Blues Rock
TTITLE0=See You Next Tuesday
TTITLE1=Gamblin' Virgin Mary
TTITLE2=Satisfied
TTITLE3=Surrender To The Blues
TTITLE4=Have I Told You I Love You Toda
TTITLE5=Always Nobody
TTITLE6=Til The Wheels Come Off
TTITLE7=Catch When I Fall
TTITLE8=I Was Gonna
TTITLE9=Alone
TTITLE10=Don't Touch Me
TTITLE11=Kingd Of Black Gold
TTITLE12=Doin' Alright
EXTD=
EXTT0=
EXTT1=
EXTT2=
EXTT3=
EXTT4=
EXTT5=
EXTT6=
EXTT7=
EXTT8=
EXTT9=
EXTT10=
EXTT11=
EXTT12=
PLAYORDER=
